# AST/ASF file generated using VICON BodyLanguage
# -----------------------------------------------
:version 1.10
:name VICON
:units
  mass 1.0
  length 0.45
  angle deg
:documentation
   .ast/.asf automatically generated from VICON data using
   VICON BodyBuilder and BodyLanguage model FoxedUp or BRILLIANT.MOD
:root
   order TX TY TZ RX RY RZ
   axis XYZ
   position 0 0 0  
   orientation 0 0 0 
:bonedata
  begin
     id 1 
     name lhipjoint
     direction 0.61886 -0.69539 0.365302 
     length 2.20474 
     axis 0 0 0  XYZ
  end
  begin
     id 2 
     name lfemur
     direction 0.34202 -0.939693 0  
     length 6.65149  
     axis 0 0 20  XYZ
    dof rx ry rz
    limits (-160.0 20.0)
           (-70.0 70.0)
           (-60.0 70.0)
  end
  begin
     id 3 
     name ltibia
     direction 0.34202 -0.939693 0   
     length 6.35814   
     axis 0 0 20   XYZ
    dof rx
    limits (-10.0 170.0)
  end
  begin
     id 4 
     name lfoot
     direction 0.101224 -0.278109 0.955201   
     length 2.18766   
     axis -90 7.62852e-016 20   XYZ
    dof rx rz
    limits (-45.0 90.0)
           (-70.0 20.0)
  end
  begin
     id 5 
     name ltoes
     direction 1.53524e-011 -4.21877e-011 1   
     length 1.09206   
     axis -90 7.62852e-016 20   XYZ
    dof rx
    limits (-90.0 20.0)
  end
  begin
     id 6 
     name rhipjoint
     direction -0.600207 -0.708087 0.371972   
     length 2.1652  
     axis 0 0 0  XYZ 
  end
  begin
     id 7 
     name rfemur
     direction -0.34202 -0.939693 0   
     length 6.54691   
     axis 0 0 -20   XYZ
    dof rx ry rz
    limits (-160.0 20.0)
           (-70.0 70.0)
           (-70.0 60.0)
  end
  begin
     id 8 
     name rtibia
     direction -0.34202 -0.939693 0   
     length 6.37474   
     axis 0 0 -20   XYZ
    dof rx
    limits (-10.0 170.0)
 end
 begin
     id 9 
     name rfoot
     direction -0.111266 -0.3057 0.945604   
     length 2.00903  
     axis -90 -7.62852e-016 -20   XYZ
    dof rx rz
    limits (-45.0 90.0)
           (-20.0 70.0)
  end
  begin
     id 10 
     name rtoes
     direction -1.5362e-011 -4.21913e-011 1   
     length 1.00221   
     axis -90 -7.62852e-016 -20   XYZ
    dof rx
    limits (-90.0 20.0)
  end
  begin
     id 11 
     name lowerback
     direction -0.0224561 0.999731 -0.00577314   
     length 2.10409   
     axis 0 0 0   XYZ
    dof rx ry rz
    limits (-20.0 45.0)
           (-30.0 30.0)
           (-30.0 30.0)
  end
  begin
     id 12 
     name upperback
     direction 0.0213126 0.999185 -0.0342817   
     length 2.09783   
     axis 0 0 0   XYZ
    dof rx ry rz
    limits (-20.0 45.0)
           (-30.0 30.0)
           (-30.0 30.0)
  end
  begin
     id 13 
     name thorax
     direction 0.0312356 0.999036 -0.0308451   
     length 2.09788   
     axis 0 0 0   XYZ
    dof rx ry rz
    limits (-20.0 45.0)
           (-30.0 30.0)
           (-30.0 30.0)
  end
  begin
     id 14 
     name lowerneck
     direction -0.0114419 0.996481 0.0830329   
     length 1.38575   
     axis 0 0 0   XYZ
    dof rx ry rz
    limits (-20.0 45.0)
           (-30.0 30.0)
           (-30.0 30.0)
  end
  begin
     id 15 
     name upperneck
     direction -0.0075675 0.996187 -0.0869092   
     length 1.39401   
     axis 0 0 0   XYZ
    dof rx ry rz
    limits (-20.0 45.0)
           (-30.0 30.0)
           (-30.0 30.0)
  end
  begin
     id 16
     name head
     direction -0.00222073 0.999264 -0.0382974  
     length 1.3964  
     axis 0 0 0   XYZ
    dof rx ry rz
    limits (-20.0 45.0)
           (-30.0 30.0)
           (-30.0 30.0)
  end
  begin
     id 17 
     name lclavicle
     direction 0.965962 0.222138 0.132556  
     length 2.81514  
     axis 0 0 0   XYZ
    dof ry rz
    limits (-20.0 10.0)
           (0.0 20.0)
  end
  begin
     id 18 
     name lhumerus
     direction 1 -4.48972e-011 7.03471e-018   
     length 4.47366   
     axis 180 -30 -90   XYZ
    dof rx ry rz
    limits (-60.0 90.0)
           (-90.0 90.0)
           (-90.0 90.0)
  end
  begin
     id 19
     name lradius
     direction 1 -4.48951e-011 -6.22192e-028   
     length 3.19948   
     axis 180 -30 -90   XYZ
    dof rx
    limits (-10.0 170.0)
  end
  begin
     id 20
     name lwrist
     direction 1 -4.48967e-011 -1.24264e-027   
     length 1.59974   
     axis 1.40095e-015 90 90   XYZ
    dof ry
    limits (-180.0 0.0)
 end
  begin
     id 21 
     name lhand
     direction 1 -4.4897e-011 -2.48528e-027   
     length 0.492667   
     axis 1.58582e-015 90 90   XYZ
    dof rx rz
    limits (-90.0 90.0)
           (-45.0 45.0)
  end
  begin
     id 22 
     name lfingers
     direction 1 -4.48996e-011 -4.97056e-027   
     length 0.397201   
     axis 3.17164e-015 90 90   XYZ
    dof rx
    limits (0.0 90.0)
  end
  begin
     id 23
     name lthumb
     direction 0.707107 -6.34981e-011 0.707107   
     length 0.570303   
     axis -90 45 2.85299e-015   XYZ
    dof rx rz
    limits (-45.0 45.0)
           (-45.0 45.0)
  end
  begin
     id 24 
     name rclavicle
     direction -0.961164 0.229034 0.153972   
     length 3.09348  
     axis 0 0 0   XYZ 
    dof ry rz
    limits (-10.0 20.0)
           (-20.0 0.0)
  end
  begin
     id 25 
     name rhumerus
     direction -1 -4.48971e-011 -9.06263e-028  
     length 4.3269   
     axis 180 30 90   XYZ
    dof rx ry rz
    limits (-90.0 60.0)
           (-90.0 90.0)
           (-90.0 90.0)
  end
  begin
     id 26 
     name rradius
     direction -1 -4.48953e-011 1.44659e-027   
     length 3.1896   
     axis 180 30 90   XYZ
    dof rx
    limits (-10.0 170.0)
  end
  begin
     id 27 
     name rwrist
     direction -1 -4.48988e-011 -1.24264e-027   
     length 1.5948   
     axis 1.40095e-015 -90 -90   XYZ
    dof ry
    limits (-180.0 0.0)
  end
  begin
     id 28
     name rhand
     direction -1 -4.49033e-011 -2.48528e-027   
     length 0.464496   
     axis 1.58582e-015 -90 -90   XYZ
    dof rx rz
    limits (-90.0 90.0)
           (-45.0 45.0)
  end
  begin
     id 29
     name rfingers
     direction -1 -4.48905e-011 -4.97056e-027   
     length 0.374489   
     axis 3.17164e-015 -90 -90   XYZ
    dof rx
    limits (0.0 90.0)
  end
  begin
     id 30
     name rthumb
     direction -0.707107 -6.34909e-011 0.707107   
     length 0.537693   
     axis -90 -45 -2.85299e-015   XYZ
    dof rx rz
    limits (-45.0 45.0)
           (-45.0 45.0)
  end
:hierarchy
  begin
    root lhipjoint rhipjoint lowerback
    lhipjoint lfemur
    lfemur ltibia
    ltibia lfoot
    lfoot ltoes
    rhipjoint rfemur
    rfemur rtibia
    rtibia rfoot
    rfoot rtoes
    lowerback upperback
    upperback thorax
    thorax lowerneck lclavicle rclavicle
    lowerneck upperneck
    upperneck head
    lclavicle lhumerus
    lhumerus lradius
    lradius lwrist
    lwrist lhand lthumb
    lhand lfingers
    rclavicle rhumerus
    rhumerus rradius
    rradius rwrist
    rwrist rhand rthumb
    rhand rfingers
  end

#!OML:ASF G:\acrobat\cartwheel_test 2\Patient 1\Session 2\acrobat4.ASF
:FULLY-SPECIFIED
:DEGREES
1363
root 2.73043 15.2679 -9.44384 3.36632 0.979681 2.49905
lowerback -0.346345 0.295689 -4.78958
upperback -5.44608 0.370824 2.28382
thorax -5.52215 0.47599 5.06026
lowerneck -21.2405 -2.26666 -2.01609
upperneck -13.4889 -2.3301 3.8186
head -0.810161 -1.02356 1.44137
rclavicle 1.08338e-014 8.74653e-015
rhumerus -8.84871 -34.6327 -1.73841
rradius 28.6977
rwrist 5.58248
rhand -13.3246 -33.0606
rfingers 7.12502
rthumb 12.7802 -62.6494
lclavicle 1.08338e-014 8.74653e-015
lhumerus -8.79179 14.6894 -2.48861
lradius 29.3496
lwrist 23.5651
lhand -26.0845 8.37865
lfingers 7.12502
lthumb 0.464129 38.3579
rfemur -9.46441 7.89554 13.2331
rtibia 30.8181
rfoot -23.718 -20.6134
rtoes -3.84651
lfemur -11.2086 3.12781 -21.5222
ltibia 31.3816
lfoot -20.0833 11.5344
ltoes -23.0803
1364
root 2.78137 15.2659 -9.41714 3.20769 0.742511 2.4862
lowerback -0.569835 0.354975 -4.4563
upperback -5.56819 0.479207 2.54281
thorax -5.53514 0.524687 5.1406
lowerneck -21.2812 -2.08107 -1.96863
upperneck -13.0253 -2.13218 3.36277
head -0.662135 -0.931721 1.29169
rclavicle -3.67752e-015 1.11319e-014
rhumerus -8.3381 -33.7703 -2.02396
rradius 28.8102
rwrist 5.09523
rhand -13.7924 -33.5521
rfingers 7.12502
rthumb 12.3292 -63.1686
lclavicle -3.67752e-015 1.11319e-014
lhumerus -8.93665 14.3578 -2.0599
lradius 29.6446
lwrist 23.5224
lhand -25.7703 8.05701
lfingers 7.12502
lthumb 0.767627 38.0354
rfemur -9.2528 7.44811 12.9582
rtibia 31.0845
rfoot -24.3087 -19.9152
rtoes -5.58812
lfemur -10.8732 3.16586 -21.7515
ltibia 31.3677
lfoot -20.1842 11.8409
ltoes -22.7216
1365
root 2.82187 15.2654 -9.38932 3.08388 0.627515 2.65486
lowerback -0.888159 0.395569 -4.33933
upperback -5.65981 0.555344 2.7116
thorax -5.4606 0.562001 5.25052
lowerneck -21.4046 -1.96133 -1.91952
upperneck -12.6008 -2.01098 2.97381
head -0.511476 -0.877112 1.16067
rclavicle 6.55989e-015 -1.66979e-014
rhumerus -8.02869 -33.0395 -2.24133
rradius 28.9185
rwrist 4.40666
rhand -13.7359 -33.6874
rfingers 7.12502
rthumb 12.3837 -63.3006
lclavicle 6.55989e-015 -1.66979e-014
lhumerus -8.86726 14.1661 -1.63201
lradius 29.955
lwrist 23.7231
lhand -25.6206 7.85961
lfingers 7.12502
lthumb 0.912203 37.8374
rfemur -9.06611 7.0313 12.5516
rtibia 31.4283
rfoot -24.7348 -19.4334
rtoes -7.02586
lfemur -10.5799 3.24382 -22.1273
ltibia 31.3131
lfoot -20.1937 12.0326
ltoes -22.587
1366
root 2.84877 15.2667 -9.36321 2.95426 0.727918 2.74392
lowerback -1.24647 0.382686 -4.26063
upperback -5.68019 0.561584 2.93288
thorax -5.28088 0.563306 5.44065
lowerneck -21.7351 -1.90258 -1.99195
upperneck -12.1039 -1.93657 2.62129
head -0.301823 -0.839677 1.05991
rclavicle -4.96962e-015 -1.11319e-014
rhumerus -7.73905 -32.9735 -2.45754
rradius 28.9596
rwrist 4.15641
rhand -13.0954 -33.5668
rfingers 7.12502
rthumb 13.0012 -63.1416
lclavicle -4.96962e-015 -1.11319e-014
lhumerus -8.66388 14.2576 -1.1202
lradius 30.2301
lwrist 23.9279
lhand -25.4546 7.94388
lfingers 7.12502
lthumb 1.07253 37.9209
rfemur -8.8056 6.60974 12.3399
rtibia 31.8701
rfoot -25.125 -19.015
rtoes -5.74269
lfemur -10.2734 3.28971 -22.3239
ltibia 31.189
lfoot -20.2205 11.9755
ltoes -22.3793
1367
root 2.86449 15.2657 -9.34317 2.77511 0.985442 2.81537
lowerback -1.53574 0.313709 -4.20691
upperback -5.69323 0.487413 3.12166
thorax -5.12251 0.525077 5.61309
lowerneck -22.0221 -1.89672 -2.26745
upperneck -11.589 -1.87341 2.59764
head -0.0828401 -0.795925 1.10145
rclavicle 1.66979e-014 7.15625e-015
rhumerus -7.58223 -33.0018 -2.68617
rradius 28.9844
rwrist 4.36207
rhand -12.2603 -33.4056
rfingers 7.12502
rthumb 13.8061 -62.9275
lclavicle 1.66979e-014 7.15625e-015
lhumerus -8.38612 14.4386 -0.683902
lradius 30.5187
lwrist 24.0246
lhand -25.0625 8.00243
lfingers 7.12502
lthumb 1.45118 37.9772
rfemur -8.36611 5.97271 12.2278
rtibia 32.4023
rfoot -25.3838 -18.8856
rtoes -4.06817
lfemur -9.90386 3.20456 -22.4386
ltibia 30.9855
lfoot -20.2772 11.8129
ltoes -22.0349
1368
root 2.87349 15.263 -9.32766 2.60167 1.22091 2.98964
lowerback -1.78702 0.261861 -4.19956
upperback -5.75443 0.427025 3.14064
thorax -5.03642 0.494199 5.63135
lowerneck -22.2705 -1.90643 -2.39333
upperneck -11.0148 -1.8594 2.66704
head 0.152647 -0.780454 1.14538
rclavicle -1.59028e-015 -2.06736e-014
rhumerus -7.66293 -32.8849 -2.94588
rradius 28.8559
rwrist 4.8752
rhand -11.9028 -33.2472
rfingers 7.12502
rthumb 14.1507 -62.7453
lclavicle -1.59028e-015 -2.06736e-014
lhumerus -7.93942 14.3377 -0.489323
lradius 30.8442
lwrist 24.2261
lhand -24.9501 8.13577
lfingers 7.12502
lthumb 1.55977 38.1098
rfemur -7.85758 5.18916 12.0199
rtibia 32.9772
rfoot -25.4043 -19.0071
rtoes -4.04578
lfemur -9.54779 3.13345 -22.6463
ltibia 30.7424
lfoot -20.269 11.6772
ltoes -21.6072
1369
root 2.87625 15.265 -9.31342 2.49116 1.41489 3.17442
lowerback -2.05589 0.234105 -4.18897
upperback -5.87478 0.39851 3.12918
thorax -5.00681 0.481295 5.61492
lowerneck -22.4659 -1.92401 -2.42427
upperneck -10.4199 -1.88269 2.5104
head 0.384099 -0.792525 1.09697
rclavicle -3.77691e-015 1.43125e-014
rhumerus -7.84645 -32.5537 -3.14508
rradius 28.6676
rwrist 5.24171
rhand -11.8618 -33.282
rfingers 7.12502
rthumb 14.1902 -62.7773
lclavicle -3.77691e-015 1.43125e-014
lhumerus -7.44371 14.1331 -0.326306
lradius 31.1249
lwrist 24.2546
lhand -25.2146 8.29334
lfingers 7.12502
lthumb 1.3043 38.2691
rfemur -7.3736 4.50342 11.8052
rtibia 33.5715
rfoot -25.422 -19.0058
rtoes -4.20078
lfemur -9.2709 3.18847 -22.8337
ltibia 30.4968
lfoot -20.1451 11.5064
ltoes -21.6096
1370
root 2.87219 15.2665 -9.30042 2.35881 1.6556 3.32111
lowerback -2.33395 0.201995 -4.12083
upperback -5.95197 0.366431 3.16115
thorax -4.92549 0.462645 5.61122
lowerneck -22.6288 -2.008 -2.68377
upperneck -9.95673 -1.93701 2.3588
head 0.57051 -0.813928 1.08808
rclavicle -6.55989e-015 1.90833e-014
rhumerus -7.96249 -32.6008 -3.3145
rradius 28.4484
rwrist 5.88723
rhand -11.6007 -33.2442
rfingers 7.12502
rthumb 14.4418 -62.7217
lclavicle -6.55989e-015 1.90833e-014
lhumerus -6.98922 14.1409 -0.0679609
lradius 31.3263
lwrist 24.0488
lhand -25.1575 8.09298
lfingers 7.12502
lthumb 1.35944 38.0684
rfemur -6.76066 3.92528 11.6604
rtibia 34.1621
rfoot -25.3757 -18.9552
rtoes -3.6138
lfemur -8.97159 3.2497 -22.9375
ltibia 30.268
lfoot -20.0817 11.2309
ltoes -21.7705
1371
root 2.86135 15.2637 -9.29133 2.17883 1.86063 3.35107
lowerback -2.59836 0.17269 -3.90822
upperback -5.97183 0.338259 3.21261
thorax -4.78946 0.436846 5.54483
lowerneck -22.9446 -2.10322 -3.01358
upperneck -9.39518 -1.98247 2.28777
head 0.818635 -0.827578 1.11858
rclavicle -1.98785e-016 1.43125e-014
rhumerus -7.88251 -33.2091 -3.60412
rradius 28.0677
rwrist 6.95448
rhand -11.3056 -33.0807
rfingers 7.12502
rthumb 14.7261 -62.5376
lclavicle -1.98785e-016 1.43125e-014
lhumerus -6.63203 14.1996 0.135985
lradius 31.5242
lwrist 23.8499
lhand -24.6634 7.73849
lfingers 7.12502
lthumb 1.83668 37.7103
rfemur -6.06392 3.32011 11.6551
rtibia 34.7323
rfoot -24.9091 -18.9888
rtoes -3.02549
lfemur -8.66363 3.25601 -22.8973
ltibia 30.099
lfoot -20.0801 11.0313
ltoes -21.8809
